# xmcd
#
# Track frame offsets:
#	150
#	14972
#	32044
#	46785
#	61922
#	76730
#	91270
#	104525
#	120897
#	138857
#	149748
#	163976
#	178710
#	193766
#	210160
#
# Disc length: 3040 seconds
#
# Revision: 0
# Processed by: cddbd v1.5.2PL0 Copyright (c) Steve Scherf et al.
# Submitted via: EZCDAudioConverter 2.4.0.1
#
DISCID=cb0bde0f
DTITLE=João Carreiro and Capataz - As Melhores
DYEAR=2013
DGENRE=Sertanejo
TTITLE0=Prefácio
TTITLE1=Mãe Toca Minha Vitrola
TTITLE2=A Tradição Não Morre Jamais
TTITLE3=Caipira de Fato
TTITLE4=Viola e Cantador
TTITLE5=Casinha Verde
TTITLE6=O Encardido não Domina
TTITLE7=Se É Amor Não Tem Nada Que Apague
TTITLE8=Maldade de um Falso Amor
TTITLE9=Vou Achar Outra Saída
TTITLE10=Sacada do Apartamento
TTITLE11=Primieiro Brinquedo
TTITLE12=Sonho de Caboclo
TTITLE13=Buscando a Felicidade
TTITLE14=Sertanejo Solitário
EXTD=
EXTT0=
EXTT1=
EXTT2=
EXTT3=
EXTT4=
EXTT5=
EXTT6=
EXTT7=
EXTT8=
EXTT9=
EXTT10=
EXTT11=
EXTT12=
EXTT13=
EXTT14=
PLAYORDER=
